  0
SECTION
  2
HEADER
  9
$ACADVER
  1
AC1009
  9
$FILLMODE
 70
 0
  9
$SPLFRAME
 70
 1
  9
$EXTMIN
 10
0
 20
0
 30
0.0
  9
$EXTMAX
 10
1058.33
 20
1058.33
 30
0.0
  0
ENDSEC
  0
SECTION
  2
TABLES
  0
TABLE
  2
LAYER
 70
1
  0
LAYER
  2
0
 70
     0
 62
     7
  6
CONTINUOUS
  0
ENDTAB
  0
ENDSEC
  0
SECTION
  2
ENTITIES
  0
LINE
  8
0
 62
     0
 10
0.0950846
 20
188.641
 30
0.0
 11
482.469
 21
188.641
 31
0.0
  0
LINE
  8
0
 62
     0
 10
482.469
 20
188.641
 30
0.0
 11
482.469
 21
0.310059
 31
0.0
  0
LINE
  8
0
 62
     0
 10
482.469
 20
0.310059
 30
0.0
 11
0.0950846
 21
0.310059
 31
0.0
  0
LINE
  8
0
 62
     0
 10
0.0950846
 20
0.310059
 30
0.0
 11
0.0950846
 21
188.641
 31
0.0
  0
LINE
  8
0
 62
     0
 10
447.929
 20
21.1239
 30
0.0
 11
451.552
 21
7.60127
 31
0.0
  0
LINE
  8
0
 62
     0
 10
451.552
 20
7.60127
 30
0.0
 11
465.074
 21
11.2255
 31
0.0
  0
LINE
  8
0
 62
     0
 10
465.074
 20
11.2255
 30
0.0
 11
461.451
 21
24.7482
 31
0.0
  0
LINE
  8
0
 62
     0
 10
461.451
 20
24.7482
 30
0.0
 11
447.929
 21
21.1239
 31
0.0
  0
LINE
  8
0
 62
     0
 10
382.358
 20
13.2471
 30
0.0
 11
395.88
 21
9.62424
 31
0.0
  0
LINE
  8
0
 62
     0
 10
395.88
 20
9.62424
 30
0.0
 11
399.503
 21
23.1483
 31
0.0
  0
LINE
  8
0
 62
     0
 10
399.503
 20
23.1483
 30
0.0
 11
385.981
 21
26.7711
 31
0.0
  0
LINE
  8
0
 62
     0
 10
385.981
 20
26.7711
 30
0.0
 11
382.358
 21
13.2471
 31
0.0
  0
LINE
  8
0
 62
     0
 10
433.797
 20
37.0611
 30
0.0
 11
437.42
 21
23.5383
 31
0.0
  0
LINE
  8
0
 62
     0
 10
437.42
 20
23.5383
 30
0.0
 11
450.945
 21
27.1611
 31
0.0
  0
LINE
  8
0
 62
     0
 10
450.945
 20
27.1611
 30
0.0
 11
447.322
 21
40.6837
 31
0.0
  0
LINE
  8
0
 62
     0
 10
447.322
 20
40.6837
 30
0.0
 11
433.797
 21
37.0611
 31
0.0
  0
LINE
  8
0
 62
     0
 10
396.49
 20
29.1841
 30
0.0
 11
410.012
 21
25.5612
 31
0.0
  0
LINE
  8
0
 62
     0
 10
410.012
 20
25.5612
 30
0.0
 11
413.635
 21
39.0839
 31
0.0
  0
LINE
  8
0
 62
     0
 10
413.635
 20
39.0839
 30
0.0
 11
400.114
 21
42.7069
 31
0.0
  0
LINE
  8
0
 62
     0
 10
400.114
 20
42.7069
 30
0.0
 11
396.49
 21
29.1841
 31
0.0
  0
LINE
  8
0
 62
     0
 10
452.198
 20
41.9901
 30
0.0
 11
455.821
 21
28.4675
 31
0.0
  0
LINE
  8
0
 62
     0
 10
455.821
 20
28.4675
 30
0.0
 11
469.346
 21
32.0918
 31
0.0
  0
LINE
  8
0
 62
     0
 10
469.346
 20
32.0918
 30
0.0
 11
465.723
 21
45.6145
 31
0.0
  0
LINE
  8
0
 62
     0
 10
465.723
 20
45.6145
 30
0.0
 11
452.198
 21
41.9901
 31
0.0
  0
LINE
  8
0
 62
     0
 10
378.086
 20
34.1147
 30
0.0
 11
391.612
 21
30.4905
 31
0.0
  0
LINE
  8
0
 62
     0
 10
391.612
 20
30.4905
 30
0.0
 11
395.235
 21
44.0133
 31
0.0
  0
LINE
  8
0
 62
     0
 10
395.235
 20
44.0133
 30
0.0
 11
381.713
 21
47.6373
 31
0.0
  0
LINE
  8
0
 62
     0
 10
381.713
 20
47.6373
 30
0.0
 11
378.086
 21
34.1147
 31
0.0
  0
LINE
  8
0
 62
     0
 10
5.50115
 20
90.3676
 30
0.0
 11
19.5006
 21
90.3676
 31
0.0
  0
LINE
  8
0
 62
     0
 10
19.5006
 20
90.3676
 30
0.0
 11
19.5006
 21
76.3683
 31
0.0
  0
LINE
  8
0
 62
     0
 10
19.5006
 20
76.3683
 30
0.0
 11
5.50115
 21
76.3683
 31
0.0
  0
LINE
  8
0
 62
     0
 10
5.50115
 20
76.3683
 30
0.0
 11
5.50115
 21
90.3676
 31
0.0
  0
LINE
  8
0
 62
     0
 10
29.3122
 20
90.3676
 30
0.0
 11
43.313
 21
90.3676
 31
0.0
  0
LINE
  8
0
 62
     0
 10
43.313
 20
90.3676
 30
0.0
 11
43.313
 21
76.3683
 31
0.0
  0
LINE
  8
0
 62
     0
 10
43.313
 20
76.3683
 30
0.0
 11
29.3122
 21
76.3683
 31
0.0
  0
LINE
  8
0
 62
     0
 10
29.3122
 20
76.3683
 30
0.0
 11
29.3122
 21
90.3676
 31
0.0
  0
LINE
  8
0
 62
     0
 10
53.1262
 20
90.3676
 30
0.0
 11
67.1255
 21
90.3676
 31
0.0
  0
LINE
  8
0
 62
     0
 10
67.1255
 20
90.3676
 30
0.0
 11
67.1255
 21
76.3683
 31
0.0
  0
LINE
  8
0
 62
     0
 10
67.1255
 20
76.3683
 30
0.0
 11
53.1262
 21
76.3683
 31
0.0
  0
LINE
  8
0
 62
     0
 10
53.1262
 20
76.3683
 30
0.0
 11
53.1262
 21
90.3676
 31
0.0
  0
LINE
  8
0
 62
     0
 10
19.7872
 20
109.416
 30
0.0
 11
19.7872
 21
104.717
 31
0.0
  0
LINE
  8
0
 62
     0
 10
19.7872
 20
104.717
 30
0.0
 11
18.2631
 21
104.717
 31
0.0
  0
LINE
  8
0
 62
     0
 10
18.2631
 20
104.717
 30
0.0
 11
18.2631
 21
107.947
 31
0.0
  0
LINE
  8
0
 62
     0
 10
18.2631
 20
107.947
 30
0.0
 11
16.5378
 21
107.947
 31
0.0
  0
LINE
  8
0
 62
     0
 10
16.5378
 20
107.947
 30
0.0
 11
16.5378
 21
108.868
 31
0.0
  0
LINE
  8
0
 62
     0
 10
16.5378
 20
108.868
 30
0.0
 11
13.2374
 21
108.868
 31
0.0
  0
LINE
  8
0
 62
     0
 10
13.2374
 20
108.868
 30
0.0
 11
13.2374
 21
107.947
 31
0.0
  0
LINE
  8
0
 62
     0
 10
13.2374
 20
107.947
 30
0.0
 11
11.5121
 21
107.947
 31
0.0
  0
LINE
  8
0
 62
     0
 10
11.5121
 20
107.947
 30
0.0
 11
11.5121
 21
104.717
 31
0.0
  0
LINE
  8
0
 62
     0
 10
11.5121
 20
104.717
 30
0.0
 11
10.6881
 21
104.717
 31
0.0
  0
LINE
  8
0
 62
     0
 10
10.6881
 20
104.717
 30
0.0
 11
10.6881
 21
101.917
 31
0.0
  0
LINE
  8
0
 62
     0
 10
10.6881
 20
101.917
 30
0.0
 11
11.5121
 21
101.917
 31
0.0
  0
LINE
  8
0
 62
     0
 10
11.5121
 20
101.917
 30
0.0
 11
11.5121
 21
95.6483
 31
0.0
  0
LINE
  8
0
 62
     0
 10
11.5121
 20
95.6483
 30
0.0
 11
13.2374
 21
95.6483
 31
0.0
  0
LINE
  8
0
 62
     0
 10
13.2374
 20
95.6483
 30
0.0
 11
13.2374
 21
94.6672
 31
0.0
  0
LINE
  8
0
 62
     0
 10
13.2374
 20
94.6672
 30
0.0
 11
16.5378
 21
94.6672
 31
0.0
  0
LINE
  8
0
 62
     0
 10
16.5378
 20
94.6672
 30
0.0
 11
16.5378
 21
95.6483
 31
0.0
  0
LINE
  8
0
 62
     0
 10
16.5378
 20
95.6483
 30
0.0
 11
18.2631
 21
95.6483
 31
0.0
  0
LINE
  8
0
 62
     0
 10
18.2631
 20
95.6483
 30
0.0
 11
18.2631
 21
100.117
 31
0.0
  0
LINE
  8
0
 62
     0
 10
18.2631
 20
100.117
 30
0.0
 11
19.7872
 21
100.117
 31
0.0
  0
LINE
  8
0
 62
     0
 10
19.7872
 20
100.117
 30
0.0
 11
19.7872
 21
95.4169
 31
0.0
  0
LINE
  8
0
 62
     0
 10
19.7872
 20
95.4169
 30
0.0
 11
33.7881
 21
95.4169
 31
0.0
  0
LINE
  8
0
 62
     0
 10
33.7881
 20
95.4169
 30
0.0
 11
33.7881
 21
100.117
 31
0.0
  0
LINE
  8
0
 62
     0
 10
33.7881
 20
100.117
 30
0.0
 11
35.3123
 21
100.117
 31
0.0
  0
LINE
  8
0
 62
     0
 10
35.3123
 20
100.117
 30
0.0
 11
35.3123
 21
95.6483
 31
0.0
  0
LINE
  8
0
 62
     0
 10
35.3123
 20
95.6483
 30
0.0
 11
37.0374
 21
95.6483
 31
0.0
  0
LINE
  8
0
 62
     0
 10
37.0374
 20
95.6483
 30
0.0
 11
37.0374
 21
94.6672
 31
0.0
  0
LINE
  8
0
 62
     0
 10
37.0374
 20
94.6672
 30
0.0
 11
40.338
 21
94.6672
 31
0.0
  0
LINE
  8
0
 62
     0
 10
40.338
 20
94.6672
 30
0.0
 11
40.338
 21
95.6483
 31
0.0
  0
LINE
  8
0
 62
     0
 10
40.338
 20
95.6483
 30
0.0
 11
42.0617
 21
95.6483
 31
0.0
  0
LINE
  8
0
 62
     0
 10
42.0617
 20
95.6483
 30
0.0
 11
42.0617
 21
101.917
 31
0.0
  0
LINE
  8
0
 62
     0
 10
42.0617
 20
101.917
 30
0.0
 11
42.8872
 21
101.917
 31
0.0
  0
LINE
  8
0
 62
     0
 10
42.8872
 20
101.917
 30
0.0
 11
42.8872
 21
104.717
 31
0.0
  0
LINE
  8
0
 62
     0
 10
42.8872
 20
104.717
 30
0.0
 11
42.0617
 21
104.717
 31
0.0
  0
LINE
  8
0
 62
     0
 10
42.0617
 20
104.717
 30
0.0
 11
42.0617
 21
107.947
 31
0.0
  0
LINE
  8
0
 62
     0
 10
42.0617
 20
107.947
 30
0.0
 11
40.338
 21
107.947
 31
0.0
  0
LINE
  8
0
 62
     0
 10
40.338
 20
107.947
 30
0.0
 11
40.338
 21
108.868
 31
0.0
  0
LINE
  8
0
 62
     0
 10
40.338
 20
108.868
 30
0.0
 11
37.0374
 21
108.868
 31
0.0
  0
LINE
  8
0
 62
     0
 10
37.0374
 20
108.868
 30
0.0
 11
37.0374
 21
107.947
 31
0.0
  0
LINE
  8
0
 62
     0
 10
37.0374
 20
107.947
 30
0.0
 11
35.3123
 21
107.947
 31
0.0
  0
LINE
  8
0
 62
     0
 10
35.3123
 20
107.947
 30
0.0
 11
35.3123
 21
104.717
 31
0.0
  0
LINE
  8
0
 62
     0
 10
35.3123
 20
104.717
 30
0.0
 11
33.7881
 21
104.717
 31
0.0
  0
LINE
  8
0
 62
     0
 10
33.7881
 20
104.717
 30
0.0
 11
33.7881
 21
109.416
 31
0.0
  0
LINE
  8
0
 62
     0
 10
33.7881
 20
109.416
 30
0.0
 11
19.7872
 21
109.416
 31
0.0
  0
LINE
  8
0
 62
     0
 10
55.5061
 20
109.416
 30
0.0
 11
69.5067
 21
109.416
 31
0.0
  0
LINE
  8
0
 62
     0
 10
69.5067
 20
109.416
 30
0.0
 11
69.5067
 21
95.4169
 31
0.0
  0
LINE
  8
0
 62
     0
 10
69.5067
 20
95.4169
 30
0.0
 11
55.5061
 21
95.4169
 31
0.0
  0
LINE
  8
0
 62
     0
 10
55.5061
 20
95.4169
 30
0.0
 11
55.5061
 21
109.416
 31
0.0
  0
LINE
  8
0
 62
     0
 10
74.5561
 20
109.416
 30
0.0
 11
88.5567
 21
109.416
 31
0.0
  0
LINE
  8
0
 62
     0
 10
88.5567
 20
109.416
 30
0.0
 11
88.5567
 21
95.4169
 31
0.0
  0
LINE
  8
0
 62
     0
 10
88.5567
 20
95.4169
 30
0.0
 11
74.5561
 21
95.4169
 31
0.0
  0
LINE
  8
0
 62
     0
 10
74.5561
 20
95.4169
 30
0.0
 11
74.5561
 21
109.416
 31
0.0
  0
LINE
  8
0
 62
     0
 10
93.6061
 20
109.416
 30
0.0
 11
107.607
 21
109.416
 31
0.0
  0
LINE
  8
0
 62
     0
 10
107.607
 20
109.416
 30
0.0
 11
107.607
 21
95.4169
 31
0.0
  0
LINE
  8
0
 62
     0
 10
107.607
 20
95.4169
 30
0.0
 11
93.6061
 21
95.4169
 31
0.0
  0
LINE
  8
0
 62
     0
 10
93.6061
 20
95.4169
 30
0.0
 11
93.6061
 21
109.416
 31
0.0
  0
LINE
  8
0
 62
     0
 10
112.656
 20
109.416
 30
0.0
 11
126.657
 21
109.416
 31
0.0
  0
LINE
  8
0
 62
     0
 10
126.657
 20
109.416
 30
0.0
 11
126.657
 21
95.4169
 31
0.0
  0
LINE
  8
0
 62
     0
 10
126.657
 20
95.4169
 30
0.0
 11
112.656
 21
95.4169
 31
0.0
  0
LINE
  8
0
 62
     0
 10
112.656
 20
95.4169
 30
0.0
 11
112.656
 21
109.416
 31
0.0
  0
LINE
  8
0
 62
     0
 10
236.481
 20
109.416
 30
0.0
 11
250.482
 21
109.416
 31
0.0
  0
LINE
  8
0
 62
     0
 10
250.482
 20
109.416
 30
0.0
 11
250.482
 21
95.4169
 31
0.0
  0
LINE
  8
0
 62
     0
 10
250.482
 20
95.4169
 30
0.0
 11
236.481
 21
95.4169
 31
0.0
  0
LINE
  8
0
 62
     0
 10
236.481
 20
95.4169
 30
0.0
 11
236.481
 21
109.416
 31
0.0
  0
LINE
  8
0
 62
     0
 10
255.531
 20
109.416
 30
0.0
 11
269.532
 21
109.416
 31
0.0
  0
LINE
  8
0
 62
     0
 10
269.532
 20
109.416
 30
0.0
 11
269.532
 21
95.4169
 31
0.0
  0
LINE
  8
0
 62
     0
 10
269.532
 20
95.4169
 30
0.0
 11
255.531
 21
95.4169
 31
0.0
  0
LINE
  8
0
 62
     0
 10
255.531
 20
95.4169
 30
0.0
 11
255.531
 21
109.416
 31
0.0
  0
LINE
  8
0
 62
     0
 10
274.581
 20
109.416
 30
0.0
 11
288.582
 21
109.416
 31
0.0
  0
LINE
  8
0
 62
     0
 10
288.582
 20
109.416
 30
0.0
 11
288.582
 21
95.4169
 31
0.0
  0
LINE
  8
0
 62
     0
 10
288.582
 20
95.4169
 30
0.0
 11
274.581
 21
95.4169
 31
0.0
  0
LINE
  8
0
 62
     0
 10
274.581
 20
95.4169
 30
0.0
 11
274.581
 21
109.416
 31
0.0
  0
LINE
  8
0
 62
     0
 10
293.631
 20
109.416
 30
0.0
 11
307.632
 21
109.416
 31
0.0
  0
LINE
  8
0
 62
     0
 10
307.632
 20
109.416
 30
0.0
 11
307.632
 21
95.4169
 31
0.0
  0
LINE
  8
0
 62
     0
 10
307.632
 20
95.4169
 30
0.0
 11
293.631
 21
95.4169
 31
0.0
  0
LINE
  8
0
 62
     0
 10
293.631
 20
95.4169
 30
0.0
 11
293.631
 21
109.416
 31
0.0
  0
LINE
  8
0
 62
     0
 10
312.681
 20
109.416
 30
0.0
 11
326.682
 21
109.416
 31
0.0
  0
LINE
  8
0
 62
     0
 10
326.682
 20
109.416
 30
0.0
 11
326.682
 21
95.4169
 31
0.0
  0
LINE
  8
0
 62
     0
 10
326.682
 20
95.4169
 30
0.0
 11
312.681
 21
95.4169
 31
0.0
  0
LINE
  8
0
 62
     0
 10
312.681
 20
95.4169
 30
0.0
 11
312.681
 21
109.416
 31
0.0
  0
LINE
  8
0
 62
     0
 10
331.731
 20
109.416
 30
0.0
 11
345.732
 21
109.416
 31
0.0
  0
LINE
  8
0
 62
     0
 10
345.732
 20
109.416
 30
0.0
 11
345.732
 21
95.4169
 31
0.0
  0
LINE
  8
0
 62
     0
 10
345.732
 20
95.4169
 30
0.0
 11
331.731
 21
95.4169
 31
0.0
  0
LINE
  8
0
 62
     0
 10
331.731
 20
95.4169
 30
0.0
 11
331.731
 21
109.416
 31
0.0
  0
LINE
  8
0
 62
     0
 10
365.069
 20
109.416
 30
0.0
 11
379.07
 21
109.416
 31
0.0
  0
LINE
  8
0
 62
     0
 10
379.07
 20
109.416
 30
0.0
 11
379.07
 21
95.4169
 31
0.0
  0
LINE
  8
0
 62
     0
 10
379.07
 20
95.4169
 30
0.0
 11
365.069
 21
95.4169
 31
0.0
  0
LINE
  8
0
 62
     0
 10
365.069
 20
95.4169
 30
0.0
 11
365.069
 21
109.416
 31
0.0
  0
LINE
  8
0
 62
     0
 10
15.0261
 20
128.466
 30
0.0
 11
15.0261
 21
123.767
 31
0.0
  0
LINE
  8
0
 62
     0
 10
15.0261
 20
123.767
 30
0.0
 11
13.5006
 21
123.767
 31
0.0
  0
LINE
  8
0
 62
     0
 10
13.5006
 20
123.767
 30
0.0
 11
13.5006
 21
126.997
 31
0.0
  0
LINE
  8
0
 62
     0
 10
13.5006
 20
126.997
 30
0.0
 11
11.7753
 21
126.997
 31
0.0
  0
LINE
  8
0
 62
     0
 10
11.7753
 20
126.997
 30
0.0
 11
11.7753
 21
127.917
 31
0.0
  0
LINE
  8
0
 62
     0
 10
11.7753
 20
127.917
 30
0.0
 11
8.47492
 21
127.917
 31
0.0
  0
LINE
  8
0
 62
     0
 10
8.47492
 20
127.917
 30
0.0
 11
8.47492
 21
126.997
 31
0.0
  0
LINE
  8
0
 62
     0
 10
8.47492
 20
126.997
 30
0.0
 11
6.751
 21
126.997
 31
0.0
  0
LINE
  8
0
 62
     0
 10
6.751
 20
126.997
 30
0.0
 11
6.751
 21
123.767
 31
0.0
  0
LINE
  8
0
 62
     0
 10
6.751
 20
123.767
 30
0.0
 11
5.92557
 21
123.767
 31
0.0
  0
LINE
  8
0
 62
     0
 10
5.92557
 20
123.767
 30
0.0
 11
5.92557
 21
120.967
 31
0.0
  0
LINE
  8
0
 62
     0
 10
5.92557
 20
120.967
 30
0.0
 11
6.751
 21
120.967
 31
0.0
  0
LINE
  8
0
 62
     0
 10
6.751
 20
120.967
 30
0.0
 11
6.751
 21
114.697
 31
0.0
  0
LINE
  8
0
 62
     0
 10
6.751
 20
114.697
 30
0.0
 11
8.47492
 21
114.697
 31
0.0
  0
LINE
  8
0
 62
     0
 10
8.47492
 20
114.697
 30
0.0
 11
8.47492
 21
113.717
 31
0.0
  0
LINE
  8
0
 62
     0
 10
8.47492
 20
113.717
 30
0.0
 11
11.7753
 21
113.717
 31
0.0
  0
LINE
  8
0
 62
     0
 10
11.7753
 20
113.717
 30
0.0
 11
11.7753
 21
114.697
 31
0.0
  0
LINE
  8
0
 62
     0
 10
11.7753
 20
114.697
 30
0.0
 11
13.5006
 21
114.697
 31
0.0
  0
LINE
  8
0
 62
     0
 10
13.5006
 20
114.697
 30
0.0
 11
13.5006
 21
119.167
 31
0.0
  0
LINE
  8
0
 62
     0
 10
13.5006
 20
119.167
 30
0.0
 11
15.0261
 21
119.167
 31
0.0
  0
LINE
  8
0
 62
     0
 10
15.0261
 20
119.167
 30
0.0
 11
15.0261
 21
114.467
 31
0.0
  0
LINE
  8
0
 62
     0
 10
15.0261
 20
114.467
 30
0.0
 11
29.0256
 21
114.467
 31
0.0
  0
LINE
  8
0
 62
     0
 10
29.0256
 20
114.467
 30
0.0
 11
29.0256
 21
119.167
 31
0.0
  0
LINE
  8
0
 62
     0
 10
29.0256
 20
119.167
 30
0.0
 11
30.5511
 21
119.167
 31
0.0
  0
LINE
  8
0
 62
     0
 10
30.5511
 20
119.167
 30
0.0
 11
30.5511
 21
114.697
 31
0.0
  0
LINE
  8
0
 62
     0
 10
30.5511
 20
114.697
 30
0.0
 11
32.275
 21
114.697
 31
0.0
  0
LINE
  8
0
 62
     0
 10
32.275
 20
114.697
 30
0.0
 11
32.275
 21
113.717
 31
0.0
  0
LINE
  8
0
 62
     0
 10
32.275
 20
113.717
 30
0.0
 11
35.5755
 21
113.717
 31
0.0
  0
LINE
  8
0
 62
     0
 10
35.5755
 20
113.717
 30
0.0
 11
35.5755
 21
114.697
 31
0.0
  0
LINE
  8
0
 62
     0
 10
35.5755
 20
114.697
 30
0.0
 11
37.3006
 21
114.697
 31
0.0
  0
LINE
  8
0
 62
     0
 10
37.3006
 20
114.697
 30
0.0
 11
37.3006
 21
120.967
 31
0.0
  0
LINE
  8
0
 62
     0
 10
37.3006
 20
120.967
 30
0.0
 11
38.1247
 21
120.967
 31
0.0
  0
LINE
  8
0
 62
     0
 10
38.1247
 20
120.967
 30
0.0
 11
38.1247
 21
123.767
 31
0.0
  0
LINE
  8
0
 62
     0
 10
38.1247
 20
123.767
 30
0.0
 11
37.3006
 21
123.767
 31
0.0
  0
LINE
  8
0
 62
     0
 10
37.3006
 20
123.767
 30
0.0
 11
37.3006
 21
126.997
 31
0.0
  0
LINE
  8
0
 62
     0
 10
37.3006
 20
126.997
 30
0.0
 11
35.5755
 21
126.997
 31
0.0
  0
LINE
  8
0
 62
     0
 10
35.5755
 20
126.997
 30
0.0
 11
35.5755
 21
127.917
 31
0.0
  0
LINE
  8
0
 62
     0
 10
35.5755
 20
127.917
 30
0.0
 11
32.275
 21
127.917
 31
0.0
  0
LINE
  8
0
 62
     0
 10
32.275
 20
127.917
 30
0.0
 11
32.275
 21
126.997
 31
0.0
  0
LINE
  8
0
 62
     0
 10
32.275
 20
126.997
 30
0.0
 11
30.5511
 21
126.997
 31
0.0
  0
LINE
  8
0
 62
     0
 10
30.5511
 20
126.997
 30
0.0
 11
30.5511
 21
123.767
 31
0.0
  0
LINE
  8
0
 62
     0
 10
30.5511
 20
123.767
 30
0.0
 11
29.0256
 21
123.767
 31
0.0
  0
LINE
  8
0
 62
     0
 10
29.0256
 20
123.767
 30
0.0
 11
29.0256
 21
128.466
 31
0.0
  0
LINE
  8
0
 62
     0
 10
29.0256
 20
128.466
 30
0.0
 11
15.0261
 21
128.466
 31
0.0
  0
LINE
  8
0
 62
     0
 10
369.831
 20
128.466
 30
0.0
 11
369.831
 21
123.767
 31
0.0
  0
LINE
  8
0
 62
     0
 10
369.831
 20
123.767
 30
0.0
 11
368.307
 21
123.767
 31
0.0
  0
LINE
  8
0
 62
     0
 10
368.307
 20
123.767
 30
0.0
 11
368.307
 21
126.997
 31
0.0
  0
LINE
  8
0
 62
     0
 10
368.307
 20
126.997
 30
0.0
 11
366.582
 21
126.997
 31
0.0
  0
LINE
  8
0
 62
     0
 10
366.582
 20
126.997
 30
0.0
 11
366.582
 21
127.917
 31
0.0
  0
LINE
  8
0
 62
     0
 10
366.582
 20
127.917
 30
0.0
 11
363.28
 21
127.917
 31
0.0
  0
LINE
  8
0
 62
     0
 10
363.28
 20
127.917
 30
0.0
 11
363.28
 21
126.997
 31
0.0
  0
LINE
  8
0
 62
     0
 10
363.28
 20
126.997
 30
0.0
 11
361.555
 21
126.997
 31
0.0
  0
LINE
  8
0
 62
     0
 10
361.555
 20
126.997
 30
0.0
 11
361.555
 21
123.767
 31
0.0
  0
LINE
  8
0
 62
     0
 10
361.555
 20
123.767
 30
0.0
 11
360.733
 21
123.767
 31
0.0
  0
LINE
  8
0
 62
     0
 10
360.733
 20
123.767
 30
0.0
 11
360.733
 21
120.967
 31
0.0
  0
LINE
  8
0
 62
     0
 10
360.733
 20
120.967
 30
0.0
 11
361.555
 21
120.967
 31
0.0
  0
LINE
  8
0
 62
     0
 10
361.555
 20
120.967
 30
0.0
 11
361.555
 21
114.697
 31
0.0
  0
LINE
  8
0
 62
     0
 10
361.555
 20
114.697
 30
0.0
 11
363.28
 21
114.697
 31
0.0
  0
LINE
  8
0
 62
     0
 10
363.28
 20
114.697
 30
0.0
 11
363.28
 21
113.717
 31
0.0
  0
LINE
  8
0
 62
     0
 10
363.28
 20
113.717
 30
0.0
 11
366.582
 21
113.717
 31
0.0
  0
LINE
  8
0
 62
     0
 10
366.582
 20
113.717
 30
0.0
 11
366.582
 21
114.697
 31
0.0
  0
LINE
  8
0
 62
     0
 10
366.582
 20
114.697
 30
0.0
 11
368.307
 21
114.697
 31
0.0
  0
LINE
  8
0
 62
     0
 10
368.307
 20
114.697
 30
0.0
 11
368.307
 21
119.167
 31
0.0
  0
LINE
  8
0
 62
     0
 10
368.307
 20
119.167
 30
0.0
 11
369.831
 21
119.167
 31
0.0
  0
LINE
  8
0
 62
     0
 10
369.831
 20
119.167
 30
0.0
 11
369.831
 21
114.467
 31
0.0
  0
LINE
  8
0
 62
     0
 10
369.831
 20
114.467
 30
0.0
 11
383.833
 21
114.467
 31
0.0
  0
LINE
  8
0
 62
     0
 10
383.833
 20
114.467
 30
0.0
 11
383.833
 21
119.167
 31
0.0
  0
LINE
  8
0
 62
     0
 10
383.833
 20
119.167
 30
0.0
 11
385.357
 21
119.167
 31
0.0
  0
LINE
  8
0
 62
     0
 10
385.357
 20
119.167
 30
0.0
 11
385.357
 21
114.697
 31
0.0
  0
LINE
  8
0
 62
     0
 10
385.357
 20
114.697
 30
0.0
 11
387.082
 21
114.697
 31
0.0
  0
LINE
  8
0
 62
     0
 10
387.082
 20
114.697
 30
0.0
 11
387.082
 21
113.717
 31
0.0
  0
LINE
  8
0
 62
     0
 10
387.082
 20
113.717
 30
0.0
 11
390.38
 21
113.717
 31
0.0
  0
LINE
  8
0
 62
     0
 10
390.38
 20
113.717
 30
0.0
 11
390.38
 21
114.697
 31
0.0
  0
LINE
  8
0
 62
     0
 10
390.38
 20
114.697
 30
0.0
 11
392.105
 21
114.697
 31
0.0
  0
LINE
  8
0
 62
     0
 10
392.105
 20
114.697
 30
0.0
 11
392.105
 21
120.967
 31
0.0
  0
LINE
  8
0
 62
     0
 10
392.105
 20
120.967
 30
0.0
 11
392.931
 21
120.967
 31
0.0
  0
LINE
  8
0
 62
     0
 10
392.931
 20
120.967
 30
0.0
 11
392.931
 21
123.767
 31
0.0
  0
LINE
  8
0
 62
     0
 10
392.931
 20
123.767
 30
0.0
 11
392.105
 21
123.767
 31
0.0
  0
LINE
  8
0
 62
     0
 10
392.105
 20
123.767
 30
0.0
 11
392.105
 21
126.997
 31
0.0
  0
LINE
  8
0
 62
     0
 10
392.105
 20
126.997
 30
0.0
 11
390.38
 21
126.997
 31
0.0
  0
LINE
  8
0
 62
     0
 10
390.38
 20
126.997
 30
0.0
 11
390.38
 21
127.917
 31
0.0
  0
LINE
  8
0
 62
     0
 10
390.38
 20
127.917
 30
0.0
 11
387.082
 21
127.917
 31
0.0
  0
LINE
  8
0
 62
     0
 10
387.082
 20
127.917
 30
0.0
 11
387.082
 21
126.997
 31
0.0
  0
LINE
  8
0
 62
     0
 10
387.082
 20
126.997
 30
0.0
 11
385.357
 21
126.997
 31
0.0
  0
LINE
  8
0
 62
     0
 10
385.357
 20
126.997
 30
0.0
 11
385.357
 21
123.767
 31
0.0
  0
LINE
  8
0
 62
     0
 10
385.357
 20
123.767
 30
0.0
 11
383.833
 21
123.767
 31
0.0
  0
LINE
  8
0
 62
     0
 10
383.833
 20
123.767
 30
0.0
 11
383.833
 21
128.466
 31
0.0
  0
LINE
  8
0
 62
     0
 10
383.833
 20
128.466
 30
0.0
 11
369.831
 21
128.466
 31
0.0
  0
LINE
  8
0
 62
     0
 10
45.9811
 20
128.466
 30
0.0
 11
59.9817
 21
128.466
 31
0.0
  0
LINE
  8
0
 62
     0
 10
59.9817
 20
128.466
 30
0.0
 11
59.9817
 21
114.467
 31
0.0
  0
LINE
  8
0
 62
     0
 10
59.9817
 20
114.467
 30
0.0
 11
45.9811
 21
114.467
 31
0.0
  0
LINE
  8
0
 62
     0
 10
45.9811
 20
114.467
 30
0.0
 11
45.9811
 21
128.466
 31
0.0
  0
LINE
  8
0
 62
     0
 10
65.0311
 20
128.466
 30
0.0
 11
79.0317
 21
128.466
 31
0.0
  0
LINE
  8
0
 62
     0
 10
79.0317
 20
128.466
 30
0.0
 11
79.0317
 21
114.467
 31
0.0
  0
LINE
  8
0
 62
     0
 10
79.0317
 20
114.467
 30
0.0
 11
65.0311
 21
114.467
 31
0.0
  0
LINE
  8
0
 62
     0
 10
65.0311
 20
114.467
 30
0.0
 11
65.0311
 21
128.466
 31
0.0
  0
LINE
  8
0
 62
     0
 10
84.0811
 20
128.466
 30
0.0
 11
98.0818
 21
128.466
 31
0.0
  0
LINE
  8
0
 62
     0
 10
98.0818
 20
128.466
 30
0.0
 11
98.0818
 21
114.467
 31
0.0
  0
LINE
  8
0
 62
     0
 10
98.0818
 20
114.467
 30
0.0
 11
84.0811
 21
114.467
 31
0.0
  0
LINE
  8
0
 62
     0
 10
84.0811
 20
114.467
 30
0.0
 11
84.0811
 21
128.466
 31
0.0
  0
LINE
  8
0
 62
     0
 10
103.131
 20
128.466
 30
0.0
 11
117.132
 21
128.466
 31
0.0
  0
LINE
  8
0
 62
     0
 10
117.132
 20
128.466
 30
0.0
 11
117.132
 21
114.467
 31
0.0
  0
LINE
  8
0
 62
     0
 10
117.132
 20
114.467
 30
0.0
 11
103.131
 21
114.467
 31
0.0
  0
LINE
  8
0
 62
     0
 10
103.131
 20
114.467
 30
0.0
 11
103.131
 21
128.466
 31
0.0
  0
LINE
  8
0
 62
     0
 10
122.181
 20
128.466
 30
0.0
 11
136.182
 21
128.466
 31
0.0
  0
LINE
  8
0
 62
     0
 10
136.182
 20
128.466
 30
0.0
 11
136.182
 21
114.467
 31
0.0
  0
LINE
  8
0
 62
     0
 10
136.182
 20
114.467
 30
0.0
 11
122.181
 21
114.467
 31
0.0
  0
LINE
  8
0
 62
     0
 10
122.181
 20
114.467
 30
0.0
 11
122.181
 21
128.466
 31
0.0
  0
LINE
  8
0
 62
     0
 10
226.956
 20
128.466
 30
0.0
 11
240.957
 21
128.466
 31
0.0
  0
LINE
  8
0
 62
     0
 10
240.957
 20
128.466
 30
0.0
 11
240.957
 21
114.467
 31
0.0
  0
LINE
  8
0
 62
     0
 10
240.957
 20
114.467
 30
0.0
 11
226.956
 21
114.467
 31
0.0
  0
LINE
  8
0
 62
     0
 10
226.956
 20
114.467
 30
0.0
 11
226.956
 21
128.466
 31
0.0
  0
LINE
  8
0
 62
     0
 10
246.006
 20
128.466
 30
0.0
 11
260.007
 21
128.466
 31
0.0
  0
LINE
  8
0
 62
     0
 10
260.007
 20
128.466
 30
0.0
 11
260.007
 21
114.467
 31
0.0
  0
LINE
  8
0
 62
     0
 10
260.007
 20
114.467
 30
0.0
 11
246.006
 21
114.467
 31
0.0
  0
LINE
  8
0
 62
     0
 10
246.006
 20
114.467
 30
0.0
 11
246.006
 21
128.466
 31
0.0
  0
LINE
  8
0
 62
     0
 10
265.056
 20
128.466
 30
0.0
 11
279.057
 21
128.466
 31
0.0
  0
LINE
  8
0
 62
     0
 10
279.057
 20
128.466
 30
0.0
 11
279.057
 21
114.467
 31
0.0
  0
LINE
  8
0
 62
     0
 10
279.057
 20
114.467
 30
0.0
 11
265.056
 21
114.467
 31
0.0
  0
LINE
  8
0
 62
     0
 10
265.056
 20
114.467
 30
0.0
 11
265.056
 21
128.466
 31
0.0
  0
LINE
  8
0
 62
     0
 10
284.106
 20
128.466
 30
0.0
 11
298.107
 21
128.466
 31
0.0
  0
LINE
  8
0
 62
     0
 10
298.107
 20
128.466
 30
0.0
 11
298.107
 21
114.467
 31
0.0
  0
LINE
  8
0
 62
     0
 10
298.107
 20
114.467
 30
0.0
 11
284.106
 21
114.467
 31
0.0
  0
LINE
  8
0
 62
     0
 10
284.106
 20
114.467
 30
0.0
 11
284.106
 21
128.466
 31
0.0
  0
LINE
  8
0
 62
     0
 10
303.156
 20
128.466
 30
0.0
 11
317.157
 21
128.466
 31
0.0
  0
LINE
  8
0
 62
     0
 10
317.157
 20
128.466
 30
0.0
 11
317.157
 21
114.467
 31
0.0
  0
LINE
  8
0
 62
     0
 10
317.157
 20
114.467
 30
0.0
 11
303.156
 21
114.467
 31
0.0
  0
LINE
  8
0
 62
     0
 10
303.156
 20
114.467
 30
0.0
 11
303.156
 21
128.466
 31
0.0
  0
LINE
  8
0
 62
     0
 10
322.206
 20
128.466
 30
0.0
 11
336.207
 21
128.466
 31
0.0
  0
LINE
  8
0
 62
     0
 10
336.207
 20
128.466
 30
0.0
 11
336.207
 21
114.467
 31
0.0
  0
LINE
  8
0
 62
     0
 10
336.207
 20
114.467
 30
0.0
 11
322.206
 21
114.467
 31
0.0
  0
LINE
  8
0
 62
     0
 10
322.206
 20
114.467
 30
0.0
 11
322.206
 21
128.466
 31
0.0
  0
LINE
  8
0
 62
     0
 10
341.256
 20
128.466
 30
0.0
 11
355.258
 21
128.466
 31
0.0
  0
LINE
  8
0
 62
     0
 10
355.258
 20
128.466
 30
0.0
 11
355.258
 21
114.467
 31
0.0
  0
LINE
  8
0
 62
     0
 10
355.258
 20
114.467
 30
0.0
 11
341.256
 21
114.467
 31
0.0
  0
LINE
  8
0
 62
     0
 10
341.256
 20
114.467
 30
0.0
 11
341.256
 21
128.466
 31
0.0
  0
LINE
  8
0
 62
     0
 10
10.2622
 20
147.516
 30
0.0
 11
24.2631
 21
147.516
 31
0.0
  0
LINE
  8
0
 62
     0
 10
24.2631
 20
147.516
 30
0.0
 11
24.2631
 21
133.517
 31
0.0
  0
LINE
  8
0
 62
     0
 10
24.2631
 20
133.517
 30
0.0
 11
10.2622
 21
133.517
 31
0.0
  0
LINE
  8
0
 62
     0
 10
10.2622
 20
133.517
 30
0.0
 11
10.2622
 21
147.516
 31
0.0
  0
LINE
  8
0
 62
     0
 10
36.4561
 20
147.516
 30
0.0
 11
50.4567
 21
147.516
 31
0.0
  0
LINE
  8
0
 62
     0
 10
50.4567
 20
147.516
 30
0.0
 11
50.4567
 21
133.517
 31
0.0
  0
LINE
  8
0
 62
     0
 10
50.4567
 20
133.517
 30
0.0
 11
36.4561
 21
133.517
 31
0.0
  0
LINE
  8
0
 62
     0
 10
36.4561
 20
133.517
 30
0.0
 11
36.4561
 21
147.516
 31
0.0
  0
LINE
  8
0
 62
     0
 10
55.5061
 20
147.516
 30
0.0
 11
69.5067
 21
147.516
 31
0.0
  0
LINE
  8
0
 62
     0
 10
69.5067
 20
147.516
 30
0.0
 11
69.5067
 21
133.517
 31
0.0
  0
LINE
  8
0
 62
     0
 10
69.5067
 20
133.517
 30
0.0
 11
55.5061
 21
133.517
 31
0.0
  0
LINE
  8
0
 62
     0
 10
55.5061
 20
133.517
 30
0.0
 11
55.5061
 21
147.516
 31
0.0
  0
LINE
  8
0
 62
     0
 10
74.5561
 20
147.516
 30
0.0
 11
88.5567
 21
147.516
 31
0.0
  0
LINE
  8
0
 62
     0
 10
88.5567
 20
147.516
 30
0.0
 11
88.5567
 21
133.517
 31
0.0
  0
LINE
  8
0
 62
     0
 10
88.5567
 20
133.517
 30
0.0
 11
74.5561
 21
133.517
 31
0.0
  0
LINE
  8
0
 62
     0
 10
74.5561
 20
133.517
 30
0.0
 11
74.5561
 21
147.516
 31
0.0
  0
LINE
  8
0
 62
     0
 10
93.6061
 20
147.516
 30
0.0
 11
107.607
 21
147.516
 31
0.0
  0
LINE
  8
0
 62
     0
 10
107.607
 20
147.516
 30
0.0
 11
107.607
 21
133.517
 31
0.0
  0
LINE
  8
0
 62
     0
 10
107.607
 20
133.517
 30
0.0
 11
93.6061
 21
133.517
 31
0.0
  0
LINE
  8
0
 62
     0
 10
93.6061
 20
133.517
 30
0.0
 11
93.6061
 21
147.516
 31
0.0
  0
LINE
  8
0
 62
     0
 10
112.656
 20
147.516
 30
0.0
 11
126.657
 21
147.516
 31
0.0
  0
LINE
  8
0
 62
     0
 10
126.657
 20
147.516
 30
0.0
 11
126.657
 21
133.517
 31
0.0
  0
LINE
  8
0
 62
     0
 10
126.657
 20
133.517
 30
0.0
 11
112.656
 21
133.517
 31
0.0
  0
LINE
  8
0
 62
     0
 10
112.656
 20
133.517
 30
0.0
 11
112.656
 21
147.516
 31
0.0
  0
LINE
  8
0
 62
     0
 10
131.706
 20
147.516
 30
0.0
 11
145.707
 21
147.516
 31
0.0
  0
LINE
  8
0
 62
     0
 10
145.707
 20
147.516
 30
0.0
 11
145.707
 21
133.517
 31
0.0
  0
LINE
  8
0
 62
     0
 10
145.707
 20
133.517
 30
0.0
 11
131.706
 21
133.517
 31
0.0
  0
LINE
  8
0
 62
     0
 10
131.706
 20
133.517
 30
0.0
 11
131.706
 21
147.516
 31
0.0
  0
LINE
  8
0
 62
     0
 10
236.481
 20
147.516
 30
0.0
 11
250.482
 21
147.516
 31
0.0
  0
LINE
  8
0
 62
     0
 10
250.482
 20
147.516
 30
0.0
 11
250.482
 21
133.517
 31
0.0
  0
LINE
  8
0
 62
     0
 10
250.482
 20
133.517
 30
0.0
 11
236.481
 21
133.517
 31
0.0
  0
LINE
  8
0
 62
     0
 10
236.481
 20
133.517
 30
0.0
 11
236.481
 21
147.516
 31
0.0
  0
LINE
  8
0
 62
     0
 10
255.531
 20
147.516
 30
0.0
 11
269.532
 21
147.516
 31
0.0
  0
LINE
  8
0
 62
     0
 10
269.532
 20
147.516
 30
0.0
 11
269.532
 21
133.517
 31
0.0
  0
LINE
  8
0
 62
     0
 10
269.532
 20
133.517
 30
0.0
 11
255.531
 21
133.517
 31
0.0
  0
LINE
  8
0
 62
     0
 10
255.531
 20
133.517
 30
0.0
 11
255.531
 21
147.516
 31
0.0
  0
LINE
  8
0
 62
     0
 10
274.581
 20
147.516
 30
0.0
 11
288.582
 21
147.516
 31
0.0
  0
LINE
  8
0
 62
     0
 10
288.582
 20
147.516
 30
0.0
 11
288.582
 21
133.517
 31
0.0
  0
LINE
  8
0
 62
     0
 10
288.582
 20
133.517
 30
0.0
 11
274.581
 21
133.517
 31
0.0
  0
LINE
  8
0
 62
     0
 10
274.581
 20
133.517
 30
0.0
 11
274.581
 21
147.516
 31
0.0
  0
LINE
  8
0
 62
     0
 10
293.631
 20
147.516
 30
0.0
 11
307.632
 21
147.516
 31
0.0
  0
LINE
  8
0
 62
     0
 10
307.632
 20
147.516
 30
0.0
 11
307.632
 21
133.517
 31
0.0
  0
LINE
  8
0
 62
     0
 10
307.632
 20
133.517
 30
0.0
 11
293.631
 21
133.517
 31
0.0
  0
LINE
  8
0
 62
     0
 10
293.631
 20
133.517
 30
0.0
 11
293.631
 21
147.516
 31
0.0
  0
LINE
  8
0
 62
     0
 10
312.681
 20
147.516
 30
0.0
 11
326.682
 21
147.516
 31
0.0
  0
LINE
  8
0
 62
     0
 10
326.682
 20
147.516
 30
0.0
 11
326.682
 21
133.517
 31
0.0
  0
LINE
  8
0
 62
     0
 10
326.682
 20
133.517
 30
0.0
 11
312.681
 21
133.517
 31
0.0
  0
LINE
  8
0
 62
     0
 10
312.681
 20
133.517
 30
0.0
 11
312.681
 21
147.516
 31
0.0
  0
LINE
  8
0
 62
     0
 10
331.731
 20
147.516
 30
0.0
 11
345.732
 21
147.516
 31
0.0
  0
LINE
  8
0
 62
     0
 10
345.732
 20
147.516
 30
0.0
 11
345.732
 21
133.517
 31
0.0
  0
LINE
  8
0
 62
     0
 10
345.732
 20
133.517
 30
0.0
 11
331.731
 21
133.517
 31
0.0
  0
LINE
  8
0
 62
     0
 10
331.731
 20
133.517
 30
0.0
 11
331.731
 21
147.516
 31
0.0
  0
LINE
  8
0
 62
     0
 10
350.781
 20
147.516
 30
0.0
 11
364.783
 21
147.516
 31
0.0
  0
LINE
  8
0
 62
     0
 10
364.783
 20
147.516
 30
0.0
 11
364.783
 21
133.517
 31
0.0
  0
LINE
  8
0
 62
     0
 10
364.783
 20
133.517
 30
0.0
 11
350.781
 21
133.517
 31
0.0
  0
LINE
  8
0
 62
     0
 10
350.781
 20
133.517
 30
0.0
 11
350.781
 21
147.516
 31
0.0
  0
LINE
  8
0
 62
     0
 10
374.594
 20
147.516
 30
0.0
 11
388.595
 21
147.516
 31
0.0
  0
LINE
  8
0
 62
     0
 10
388.595
 20
147.516
 30
0.0
 11
388.595
 21
133.517
 31
0.0
  0
LINE
  8
0
 62
     0
 10
388.595
 20
133.517
 30
0.0
 11
374.594
 21
133.517
 31
0.0
  0
LINE
  8
0
 62
     0
 10
374.594
 20
133.517
 30
0.0
 11
374.594
 21
147.516
 31
0.0
  0
LINE
  8
0
 62
     0
 10
369.831
 20
166.566
 30
0.0
 11
369.831
 21
161.867
 31
0.0
  0
LINE
  8
0
 62
     0
 10
369.831
 20
161.867
 30
0.0
 11
368.307
 21
161.867
 31
0.0
  0
LINE
  8
0
 62
     0
 10
368.307
 20
161.867
 30
0.0
 11
368.307
 21
165.097
 31
0.0
  0
LINE
  8
0
 62
     0
 10
368.307
 20
165.097
 30
0.0
 11
366.582
 21
165.097
 31
0.0
  0
LINE
  8
0
 62
     0
 10
366.582
 20
165.097
 30
0.0
 11
366.582
 21
166.017
 31
0.0
  0
LINE
  8
0
 62
     0
 10
366.582
 20
166.017
 30
0.0
 11
363.28
 21
166.017
 31
0.0
  0
LINE
  8
0
 62
     0
 10
363.28
 20
166.017
 30
0.0
 11
363.28
 21
165.097
 31
0.0
  0
LINE
  8
0
 62
     0
 10
363.28
 20
165.097
 30
0.0
 11
361.555
 21
165.097
 31
0.0
  0
LINE
  8
0
 62
     0
 10
361.555
 20
165.097
 30
0.0
 11
361.555
 21
161.867
 31
0.0
  0
LINE
  8
0
 62
     0
 10
361.555
 20
161.867
 30
0.0
 11
360.733
 21
161.867
 31
0.0
  0
LINE
  8
0
 62
     0
 10
360.733
 20
161.867
 30
0.0
 11
360.733
 21
159.067
 31
0.0
  0
LINE
  8
0
 62
     0
 10
360.733
 20
159.067
 30
0.0
 11
361.555
 21
159.067
 31
0.0
  0
LINE
  8
0
 62
     0
 10
361.555
 20
159.067
 30
0.0
 11
361.555
 21
152.797
 31
0.0
  0
LINE
  8
0
 62
     0
 10
361.555
 20
152.797
 30
0.0
 11
363.28
 21
152.797
 31
0.0
  0
LINE
  8
0
 62
     0
 10
363.28
 20
152.797
 30
0.0
 11
363.28
 21
151.817
 31
0.0
  0
LINE
  8
0
 62
     0
 10
363.28
 20
151.817
 30
0.0
 11
366.582
 21
151.817
 31
0.0
  0
LINE
  8
0
 62
     0
 10
366.582
 20
151.817
 30
0.0
 11
366.582
 21
152.797
 31
0.0
  0
LINE
  8
0
 62
     0
 10
366.582
 20
152.797
 30
0.0
 11
368.307
 21
152.797
 31
0.0
  0
LINE
  8
0
 62
     0
 10
368.307
 20
152.797
 30
0.0
 11
368.307
 21
157.267
 31
0.0
  0
LINE
  8
0
 62
     0
 10
368.307
 20
157.267
 30
0.0
 11
369.831
 21
157.267
 31
0.0
  0
LINE
  8
0
 62
     0
 10
369.831
 20
157.267
 30
0.0
 11
369.831
 21
152.567
 31
0.0
  0
LINE
  8
0
 62
     0
 10
369.831
 20
152.567
 30
0.0
 11
383.833
 21
152.567
 31
0.0
  0
LINE
  8
0
 62
     0
 10
383.833
 20
152.567
 30
0.0
 11
383.833
 21
157.267
 31
0.0
  0
LINE
  8
0
 62
     0
 10
383.833
 20
157.267
 30
0.0
 11
385.357
 21
157.267
 31
0.0
  0
LINE
  8
0
 62
     0
 10
385.357
 20
157.267
 30
0.0
 11
385.357
 21
152.797
 31
0.0
  0
LINE
  8
0
 62
     0
 10
385.357
 20
152.797
 30
0.0
 11
387.082
 21
152.797
 31
0.0
  0
LINE
  8
0
 62
     0
 10
387.082
 20
152.797
 30
0.0
 11
387.082
 21
151.817
 31
0.0
  0
LINE
  8
0
 62
     0
 10
387.082
 20
151.817
 30
0.0
 11
390.38
 21
151.817
 31
0.0
  0
LINE
  8
0
 62
     0
 10
390.38
 20
151.817
 30
0.0
 11
390.38
 21
152.797
 31
0.0
  0
LINE
  8
0
 62
     0
 10
390.38
 20
152.797
 30
0.0
 11
392.105
 21
152.797
 31
0.0
  0
LINE
  8
0
 62
     0
 10
392.105
 20
152.797
 30
0.0
 11
392.105
 21
159.067
 31
0.0
  0
LINE
  8
0
 62
     0
 10
392.105
 20
159.067
 30
0.0
 11
392.931
 21
159.067
 31
0.0
  0
LINE
  8
0
 62
     0
 10
392.931
 20
159.067
 30
0.0
 11
392.931
 21
161.867
 31
0.0
  0
LINE
  8
0
 62
     0
 10
392.931
 20
161.867
 30
0.0
 11
392.105
 21
161.867
 31
0.0
  0
LINE
  8
0
 62
     0
 10
392.105
 20
161.867
 30
0.0
 11
392.105
 21
165.097
 31
0.0
  0
LINE
  8
0
 62
     0
 10
392.105
 20
165.097
 30
0.0
 11
390.38
 21
165.097
 31
0.0
  0
LINE
  8
0
 62
     0
 10
390.38
 20
165.097
 30
0.0
 11
390.38
 21
166.017
 31
0.0
  0
LINE
  8
0
 62
     0
 10
390.38
 20
166.017
 30
0.0
 11
387.082
 21
166.017
 31
0.0
  0
LINE
  8
0
 62
     0
 10
387.082
 20
166.017
 30
0.0
 11
387.082
 21
165.097
 31
0.0
  0
LINE
  8
0
 62
     0
 10
387.082
 20
165.097
 30
0.0
 11
385.357
 21
165.097
 31
0.0
  0
LINE
  8
0
 62
     0
 10
385.357
 20
165.097
 30
0.0
 11
385.357
 21
161.867
 31
0.0
  0
LINE
  8
0
 62
     0
 10
385.357
 20
161.867
 30
0.0
 11
383.833
 21
161.867
 31
0.0
  0
LINE
  8
0
 62
     0
 10
383.833
 20
161.867
 30
0.0
 11
383.833
 21
166.566
 31
0.0
  0
LINE
  8
0
 62
     0
 10
383.833
 20
166.566
 30
0.0
 11
369.831
 21
166.566
 31
0.0
  0
LINE
  8
0
 62
     0
 10
3.11988
 20
166.566
 30
0.0
 11
17.1194
 21
166.566
 31
0.0
  0
LINE
  8
0
 62
     0
 10
17.1194
 20
166.566
 30
0.0
 11
17.1194
 21
152.567
 31
0.0
  0
LINE
  8
0
 62
     0
 10
17.1194
 20
152.567
 30
0.0
 11
3.11988
 21
152.567
 31
0.0
  0
LINE
  8
0
 62
     0
 10
3.11988
 20
152.567
 30
0.0
 11
3.11988
 21
166.566
 31
0.0
  0
LINE
  8
0
 62
     0
 10
22.1699
 20
166.566
 30
0.0
 11
36.1692
 21
166.566
 31
0.0
  0
LINE
  8
0
 62
     0
 10
36.1692
 20
166.566
 30
0.0
 11
36.1692
 21
152.567
 31
0.0
  0
LINE
  8
0
 62
     0
 10
36.1692
 20
152.567
 30
0.0
 11
22.1699
 21
152.567
 31
0.0
  0
LINE
  8
0
 62
     0
 10
22.1699
 20
152.567
 30
0.0
 11
22.1699
 21
166.566
 31
0.0
  0
LINE
  8
0
 62
     0
 10
41.22
 20
166.566
 30
0.0
 11
55.2192
 21
166.566
 31
0.0
  0
LINE
  8
0
 62
     0
 10
55.2192
 20
166.566
 30
0.0
 11
55.2192
 21
152.567
 31
0.0
  0
LINE
  8
0
 62
     0
 10
55.2192
 20
152.567
 30
0.0
 11
41.22
 21
152.567
 31
0.0
  0
LINE
  8
0
 62
     0
 10
41.22
 20
152.567
 30
0.0
 11
41.22
 21
166.566
 31
0.0
  0
LINE
  8
0
 62
     0
 10
60.27
 20
166.566
 30
0.0
 11
74.2692
 21
166.566
 31
0.0
  0
LINE
  8
0
 62
     0
 10
74.2692
 20
166.566
 30
0.0
 11
74.2692
 21
152.567
 31
0.0
  0
LINE
  8
0
 62
     0
 10
74.2692
 20
152.567
 30
0.0
 11
60.27
 21
152.567
 31
0.0
  0
LINE
  8
0
 62
     0
 10
60.27
 20
152.567
 30
0.0
 11
60.27
 21
166.566
 31
0.0
  0
LINE
  8
0
 62
     0
 10
79.32
 20
166.566
 30
0.0
 11
93.3193
 21
166.566
 31
0.0
  0
LINE
  8
0
 62
     0
 10
93.3193
 20
166.566
 30
0.0
 11
93.3193
 21
152.567
 31
0.0
  0
LINE
  8
0
 62
     0
 10
93.3193
 20
152.567
 30
0.0
 11
79.32
 21
152.567
 31
0.0
  0
LINE
  8
0
 62
     0
 10
79.32
 20
152.567
 30
0.0
 11
79.32
 21
166.566
 31
0.0
  0
LINE
  8
0
 62
     0
 10
98.3686
 20
166.566
 30
0.0
 11
112.368
 21
166.566
 31
0.0
  0
LINE
  8
0
 62
     0
 10
112.368
 20
166.566
 30
0.0
 11
112.368
 21
152.567
 31
0.0
  0
LINE
  8
0
 62
     0
 10
112.368
 20
152.567
 30
0.0
 11
98.3686
 21
152.567
 31
0.0
  0
LINE
  8
0
 62
     0
 10
98.3686
 20
152.567
 30
0.0
 11
98.3686
 21
166.566
 31
0.0
  0
LINE
  8
0
 62
     0
 10
226.956
 20
166.566
 30
0.0
 11
240.957
 21
166.566
 31
0.0
  0
LINE
  8
0
 62
     0
 10
240.957
 20
166.566
 30
0.0
 11
240.957
 21
152.567
 31
0.0
  0
LINE
  8
0
 62
     0
 10
240.957
 20
152.567
 30
0.0
 11
226.956
 21
152.567
 31
0.0
  0
LINE
  8
0
 62
     0
 10
226.956
 20
152.567
 30
0.0
 11
226.956
 21
166.566
 31
0.0
  0
LINE
  8
0
 62
     0
 10
246.006
 20
166.566
 30
0.0
 11
260.007
 21
166.566
 31
0.0
  0
LINE
  8
0
 62
     0
 10
260.007
 20
166.566
 30
0.0
 11
260.007
 21
152.567
 31
0.0
  0
LINE
  8
0
 62
     0
 10
260.007
 20
152.567
 30
0.0
 11
246.006
 21
152.567
 31
0.0
  0
LINE
  8
0
 62
     0
 10
246.006
 20
152.567
 30
0.0
 11
246.006
 21
166.566
 31
0.0
  0
LINE
  8
0
 62
     0
 10
265.056
 20
166.566
 30
0.0
 11
279.057
 21
166.566
 31
0.0
  0
LINE
  8
0
 62
     0
 10
279.057
 20
166.566
 30
0.0
 11
279.057
 21
152.567
 31
0.0
  0
LINE
  8
0
 62
     0
 10
279.057
 20
152.567
 30
0.0
 11
265.056
 21
152.567
 31
0.0
  0
LINE
  8
0
 62
     0
 10
265.056
 20
152.567
 30
0.0
 11
265.056
 21
166.566
 31
0.0
  0
LINE
  8
0
 62
     0
 10
284.106
 20
166.566
 30
0.0
 11
298.107
 21
166.566
 31
0.0
  0
LINE
  8
0
 62
     0
 10
298.107
 20
166.566
 30
0.0
 11
298.107
 21
152.567
 31
0.0
  0
LINE
  8
0
 62
     0
 10
298.107
 20
152.567
 30
0.0
 11
284.106
 21
152.567
 31
0.0
  0
LINE
  8
0
 62
     0
 10
284.106
 20
152.567
 30
0.0
 11
284.106
 21
166.566
 31
0.0
  0
LINE
  8
0
 62
     0
 10
303.156
 20
166.566
 30
0.0
 11
317.157
 21
166.566
 31
0.0
  0
LINE
  8
0
 62
     0
 10
317.157
 20
166.566
 30
0.0
 11
317.157
 21
152.567
 31
0.0
  0
LINE
  8
0
 62
     0
 10
317.157
 20
152.567
 30
0.0
 11
303.156
 21
152.567
 31
0.0
  0
LINE
  8
0
 62
     0
 10
303.156
 20
152.567
 30
0.0
 11
303.156
 21
166.566
 31
0.0
  0
LINE
  8
0
 62
     0
 10
322.206
 20
166.566
 30
0.0
 11
336.207
 21
166.566
 31
0.0
  0
LINE
  8
0
 62
     0
 10
336.207
 20
166.566
 30
0.0
 11
336.207
 21
152.567
 31
0.0
  0
LINE
  8
0
 62
     0
 10
336.207
 20
152.567
 30
0.0
 11
322.206
 21
152.567
 31
0.0
  0
LINE
  8
0
 62
     0
 10
322.206
 20
152.567
 30
0.0
 11
322.206
 21
166.566
 31
0.0
  0
LINE
  8
0
 62
     0
 10
341.256
 20
166.566
 30
0.0
 11
355.258
 21
166.566
 31
0.0
  0
LINE
  8
0
 62
     0
 10
355.258
 20
166.566
 30
0.0
 11
355.258
 21
152.567
 31
0.0
  0
LINE
  8
0
 62
     0
 10
355.258
 20
152.567
 30
0.0
 11
341.256
 21
152.567
 31
0.0
  0
LINE
  8
0
 62
     0
 10
341.256
 20
152.567
 30
0.0
 11
341.256
 21
166.566
 31
0.0
  0
LINE
  8
0
 62
     0
 10
117.42
 20
166.568
 30
0.0
 11
131.419
 21
166.568
 31
0.0
  0
LINE
  8
0
 62
     0
 10
131.419
 20
166.568
 30
0.0
 11
131.419
 21
152.568
 31
0.0
  0
LINE
  8
0
 62
     0
 10
131.419
 20
152.568
 30
0.0
 11
117.42
 21
152.568
 31
0.0
  0
LINE
  8
0
 62
     0
 10
117.42
 20
152.568
 30
0.0
 11
117.42
 21
166.568
 31
0.0
  0
LINE
  8
0
 62
     0
 10
136.47
 20
166.568
 30
0.0
 11
150.469
 21
166.568
 31
0.0
  0
LINE
  8
0
 62
     0
 10
150.469
 20
166.568
 30
0.0
 11
150.469
 21
152.568
 31
0.0
  0
LINE
  8
0
 62
     0
 10
150.469
 20
152.568
 30
0.0
 11
136.47
 21
152.568
 31
0.0
  0
LINE
  8
0
 62
     0
 10
136.47
 20
152.568
 30
0.0
 11
136.47
 21
166.568
 31
0.0
  0
LINE
  8
0
 62
     0
 10
3.11988
 20
185.616
 30
0.0
 11
17.1194
 21
185.616
 31
0.0
  0
LINE
  8
0
 62
     0
 10
17.1194
 20
185.616
 30
0.0
 11
17.1194
 21
171.617
 31
0.0
  0
LINE
  8
0
 62
     0
 10
17.1194
 20
171.617
 30
0.0
 11
3.11988
 21
171.617
 31
0.0
  0
LINE
  8
0
 62
     0
 10
3.11988
 20
171.617
 30
0.0
 11
3.11988
 21
185.616
 31
0.0
  0
LINE
  8
0
 62
     0
 10
41.22
 20
185.616
 30
0.0
 11
55.2192
 21
185.616
 31
0.0
  0
LINE
  8
0
 62
     0
 10
55.2192
 20
185.616
 30
0.0
 11
55.2192
 21
171.617
 31
0.0
  0
LINE
  8
0
 62
     0
 10
55.2192
 20
171.617
 30
0.0
 11
41.22
 21
171.617
 31
0.0
  0
LINE
  8
0
 62
     0
 10
41.22
 20
171.617
 30
0.0
 11
41.22
 21
185.616
 31
0.0
  0
LINE
  8
0
 62
     0
 10
60.27
 20
185.616
 30
0.0
 11
74.2692
 21
185.616
 31
0.0
  0
LINE
  8
0
 62
     0
 10
74.2692
 20
185.616
 30
0.0
 11
74.2692
 21
171.617
 31
0.0
  0
LINE
  8
0
 62
     0
 10
74.2692
 20
171.617
 30
0.0
 11
60.27
 21
171.617
 31
0.0
  0
LINE
  8
0
 62
     0
 10
60.27
 20
171.617
 30
0.0
 11
60.27
 21
185.616
 31
0.0
  0
LINE
  8
0
 62
     0
 10
79.32
 20
185.616
 30
0.0
 11
93.3193
 21
185.616
 31
0.0
  0
LINE
  8
0
 62
     0
 10
93.3193
 20
185.616
 30
0.0
 11
93.3193
 21
171.617
 31
0.0
  0
LINE
  8
0
 62
     0
 10
93.3193
 20
171.617
 30
0.0
 11
79.32
 21
171.617
 31
0.0
  0
LINE
  8
0
 62
     0
 10
79.32
 20
171.617
 30
0.0
 11
79.32
 21
185.616
 31
0.0
  0
LINE
  8
0
 62
     0
 10
98.3686
 20
185.616
 30
0.0
 11
112.368
 21
185.616
 31
0.0
  0
LINE
  8
0
 62
     0
 10
112.368
 20
185.616
 30
0.0
 11
112.368
 21
171.617
 31
0.0
  0
LINE
  8
0
 62
     0
 10
112.368
 20
171.617
 30
0.0
 11
98.3686
 21
171.617
 31
0.0
  0
LINE
  8
0
 62
     0
 10
98.3686
 20
171.617
 30
0.0
 11
98.3686
 21
185.616
 31
0.0
  0
LINE
  8
0
 62
     0
 10
236.481
 20
185.616
 30
0.0
 11
250.482
 21
185.616
 31
0.0
  0
LINE
  8
0
 62
     0
 10
250.482
 20
185.616
 30
0.0
 11
250.482
 21
171.617
 31
0.0
  0
LINE
  8
0
 62
     0
 10
250.482
 20
171.617
 30
0.0
 11
236.481
 21
171.617
 31
0.0
  0
LINE
  8
0
 62
     0
 10
236.481
 20
171.617
 30
0.0
 11
236.481
 21
185.616
 31
0.0
  0
LINE
  8
0
 62
     0
 10
255.531
 20
185.616
 30
0.0
 11
269.532
 21
185.616
 31
0.0
  0
LINE
  8
0
 62
     0
 10
269.532
 20
185.616
 30
0.0
 11
269.532
 21
171.617
 31
0.0
  0
LINE
  8
0
 62
     0
 10
269.532
 20
171.617
 30
0.0
 11
255.531
 21
171.617
 31
0.0
  0
LINE
  8
0
 62
     0
 10
255.531
 20
171.617
 30
0.0
 11
255.531
 21
185.616
 31
0.0
  0
LINE
  8
0
 62
     0
 10
274.581
 20
185.616
 30
0.0
 11
288.582
 21
185.616
 31
0.0
  0
LINE
  8
0
 62
     0
 10
288.582
 20
185.616
 30
0.0
 11
288.582
 21
171.617
 31
0.0
  0
LINE
  8
0
 62
     0
 10
288.582
 20
171.617
 30
0.0
 11
274.581
 21
171.617
 31
0.0
  0
LINE
  8
0
 62
     0
 10
274.581
 20
171.617
 30
0.0
 11
274.581
 21
185.616
 31
0.0
  0
LINE
  8
0
 62
     0
 10
293.631
 20
185.616
 30
0.0
 11
307.632
 21
185.616
 31
0.0
  0
LINE
  8
0
 62
     0
 10
307.632
 20
185.616
 30
0.0
 11
307.632
 21
171.617
 31
0.0
  0
LINE
  8
0
 62
     0
 10
307.632
 20
171.617
 30
0.0
 11
293.631
 21
171.617
 31
0.0
  0
LINE
  8
0
 62
     0
 10
293.631
 20
171.617
 30
0.0
 11
293.631
 21
185.616
 31
0.0
  0
LINE
  8
0
 62
     0
 10
322.206
 20
185.616
 30
0.0
 11
336.207
 21
185.616
 31
0.0
  0
LINE
  8
0
 62
     0
 10
336.207
 20
185.616
 30
0.0
 11
336.207
 21
171.617
 31
0.0
  0
LINE
  8
0
 62
     0
 10
336.207
 20
171.617
 30
0.0
 11
322.206
 21
171.617
 31
0.0
  0
LINE
  8
0
 62
     0
 10
322.206
 20
171.617
 30
0.0
 11
322.206
 21
185.616
 31
0.0
  0
LINE
  8
0
 62
     0
 10
341.256
 20
185.616
 30
0.0
 11
355.258
 21
185.616
 31
0.0
  0
LINE
  8
0
 62
     0
 10
355.258
 20
185.616
 30
0.0
 11
355.258
 21
171.617
 31
0.0
  0
LINE
  8
0
 62
     0
 10
355.258
 20
171.617
 30
0.0
 11
341.256
 21
171.617
 31
0.0
  0
LINE
  8
0
 62
     0
 10
341.256
 20
171.617
 30
0.0
 11
341.256
 21
185.616
 31
0.0
  0
LINE
  8
0
 62
     0
 10
360.306
 20
185.616
 30
0.0
 11
374.308
 21
185.616
 31
0.0
  0
LINE
  8
0
 62
     0
 10
374.308
 20
185.616
 30
0.0
 11
374.308
 21
171.617
 31
0.0
  0
LINE
  8
0
 62
     0
 10
374.308
 20
171.617
 30
0.0
 11
360.306
 21
171.617
 31
0.0
  0
LINE
  8
0
 62
     0
 10
360.306
 20
171.617
 30
0.0
 11
360.306
 21
185.616
 31
0.0
  0
LINE
  8
0
 62
     0
 10
379.356
 20
185.616
 30
0.0
 11
393.358
 21
185.616
 31
0.0
  0
LINE
  8
0
 62
     0
 10
393.358
 20
185.616
 30
0.0
 11
393.358
 21
171.617
 31
0.0
  0
LINE
  8
0
 62
     0
 10
393.358
 20
171.617
 30
0.0
 11
379.356
 21
171.617
 31
0.0
  0
LINE
  8
0
 62
     0
 10
379.356
 20
171.617
 30
0.0
 11
379.356
 21
185.616
 31
0.0
  0
ENDSEC
  0
EOF
